<svg width="44" height="37" viewBox="0 0 44 37" fill="none" xmlns="http://www.w3.org/2000/svg">
<g clip-path="url(#clip0)">
<path d="M43.9737 24.784L43.4989 21.9378C43.3321 20.9631 42.5108 20.2613 41.5485 20.2613C41.5356 20.2613 41.5356 20.2613 41.5228 20.2613L36.9419 20.3133C36.9034 20.3133 36.8777 20.3133 36.8521 20.3263C36.6211 18.5848 35.1454 17.2462 33.3618 17.2462C33.349 17.2462 33.3362 17.2462 33.3233 17.2462C31.5397 17.2722 30.0641 18.6368 29.8588 20.3913L15.885 20.5472C15.7824 19.7675 15.4231 19.0527 14.8585 18.4938C14.1912 17.831 13.3058 17.4672 12.3563 17.4801C11.4196 17.4931 10.5342 17.87 9.87976 18.5458C9.328 19.1177 8.98154 19.8454 8.90455 20.6382C8.87889 20.6382 8.84039 20.6252 8.81473 20.6252L3.69487 20.6772C2.70683 20.6902 1.8856 21.483 1.80861 22.4707L1.46215 27.6041C1.41082 28.2799 1.74445 28.9297 2.32188 29.2806C3.1816 29.8005 4.72141 30.7882 5.45282 31.49L5.61963 31.6459C6.85148 32.8156 9.14835 34.9989 11.6505 35.7657C13.3443 36.2856 17.7969 36.9743 21.9288 36.9743C23.9562 36.9743 25.9066 36.8054 27.4079 36.3635C30.7313 35.3888 35.7998 30.2813 35.8512 30.2294C36.4029 29.6575 38.4945 28.7218 40.5091 27.8121C41.3303 27.4352 42.1772 27.0583 42.9728 26.6814C43.7042 26.3695 44.1148 25.5767 43.9737 24.784ZM33.3362 18.1559C33.349 18.1559 33.349 18.1559 33.3618 18.1559C34.799 18.1559 35.9667 19.3256 35.9795 20.7812C35.9923 22.2497 34.8246 23.4454 33.3875 23.4714C31.9375 23.4844 30.757 22.3017 30.7313 20.8461C30.7313 19.3776 31.8862 18.1689 33.3362 18.1559ZM10.5342 19.1826C11.0218 18.6758 11.6762 18.3899 12.3819 18.3899C12.3948 18.3899 12.4076 18.3899 12.4076 18.3899C13.1005 18.3899 13.7421 18.6628 14.2425 19.1437C14.743 19.6375 15.0253 20.3003 15.0253 21.0151C15.0381 21.7299 14.7687 22.3927 14.281 22.8995C13.7934 23.4064 13.139 23.6923 12.4333 23.6923C12.4204 23.6923 12.4204 23.6923 12.4076 23.6923C10.9705 23.6923 9.80277 22.5226 9.78994 21.0671C9.77711 20.3653 10.0466 19.6895 10.5342 19.1826ZM42.6007 25.8757C41.8179 26.2525 40.971 26.6294 40.1626 26.9933C37.8786 28.033 35.9025 28.9167 35.2224 29.6055C34.2087 30.6452 29.8716 34.713 27.1641 35.5058C22.9553 36.7404 14.512 35.6877 11.92 34.908C9.6103 34.2062 7.4289 32.1138 6.24838 30.9961L6.08157 30.8272C5.3245 30.1124 3.87451 29.1637 2.79665 28.5009C2.51435 28.3189 2.34754 28.007 2.3732 27.6691L2.71966 22.5356C2.75815 22.0028 3.19443 21.5869 3.72053 21.5869L8.84039 21.5349C8.87889 21.5349 8.90455 21.5349 8.93021 21.5219C9.16119 23.2634 10.6368 24.602 12.4204 24.602C12.4333 24.602 12.4461 24.602 12.4589 24.602C13.3957 24.589 14.281 24.2121 14.9355 23.5233C15.4872 22.9515 15.8209 22.2237 15.9107 21.444L29.8844 21.288C30.1282 23.0295 31.6039 24.3681 33.3747 24.3681C33.3875 24.3681 33.4003 24.3681 33.4131 24.3681C35.2096 24.3421 36.6724 22.9645 36.8777 21.21C36.9034 21.21 36.9419 21.223 36.9675 21.223L41.5485 21.171C42.0874 21.1581 42.5493 21.5479 42.6263 22.0938L43.1011 24.9399C43.1524 25.3298 42.9599 25.7197 42.6007 25.8757ZM31.6039 28.8778L20.6456 28.9947L9.8156 29.1117C9.46915 29.1117 9.16119 29.3196 9.02004 29.6445C8.87889 29.9694 8.94305 30.3333 9.17402 30.6062C9.94392 31.451 11.5479 32.9585 13.6395 33.4784C15.731 33.9982 19.3881 34.4271 22.3907 34.4271C24.0203 34.4271 25.4575 34.2971 26.3685 33.9982C28.0495 33.4394 30.757 31.334 32.0915 30.1904C32.3353 29.9824 32.4123 29.6575 32.3096 29.3586C32.1941 29.0727 31.9118 28.8778 31.6039 28.8778ZM9.86693 30.0344L20.2093 29.9174L20.2478 33.4654C17.9638 33.3354 15.5386 33.0235 13.8576 32.6077C12.0227 32.1528 10.5727 30.8142 9.86693 30.0344ZM26.0862 33.1405C25.0982 33.4784 23.2248 33.5694 21.146 33.5044L21.1075 29.9174L31.1676 29.8135C29.5251 31.1651 27.3437 32.7116 26.0862 33.1405ZM10.3417 13.9582C12.7156 13.8672 15.1664 13.7762 16.8217 13.9452C16.9885 13.9582 17.1554 13.9972 17.3222 14.0492L21.2102 15.4008C21.2615 15.4138 21.3128 15.4268 21.3513 15.4268C21.4796 15.4268 21.608 15.3748 21.6978 15.2708C21.8133 15.1278 21.8389 14.9199 21.7491 14.764C21.4027 14.1012 20.5814 12.1777 21.0305 11.229C21.5438 10.1243 21.5695 8.2269 20.6199 6.75833C20.0938 5.93958 19.0929 4.99086 17.258 4.91288C16.9629 2.78152 16.5394 0.442211 13.2802 0.0393303C12.0227 -0.116623 10.8806 0.20828 9.99525 0.94906C9.18685 1.62486 8.63509 2.62556 8.41695 3.76922C7.39041 3.28836 6.14573 3.31436 4.91388 3.86019C3.36125 4.53599 2.21922 5.8486 1.92409 7.25219C0.705079 7.74604 -0.0391611 8.96768 -0.000665937 10.4622C0.0378292 12.0867 1.01304 13.4513 2.34754 13.7762C4.10549 14.2051 7.27492 14.0752 10.3417 13.9582ZM0.897555 10.4362C0.871891 9.50052 1.26967 8.38285 2.45019 8.03195C2.61701 7.97997 2.74532 7.83701 2.77099 7.65507C2.92497 6.47242 3.92584 5.28977 5.27317 4.70494C6.47935 4.1851 7.65987 4.25008 8.5196 4.88689C8.64792 4.99086 8.82756 5.00385 8.96871 4.92588C9.12269 4.8609 9.21251 4.70494 9.22534 4.54899C9.30233 3.36634 9.78994 2.31365 10.5598 1.66385C11.2528 1.07902 12.1638 0.832095 13.1647 0.94906C15.8337 1.27396 16.0903 3.10642 16.3854 5.22479L16.4111 5.43273C16.4496 5.66666 16.6421 5.82261 16.8731 5.82261C18.1947 5.78362 19.2341 6.27748 19.8628 7.26518C20.6199 8.44783 20.6071 9.99437 20.2093 10.8521C19.7474 11.8528 20.1323 13.2694 20.5044 14.2181L17.6045 13.2044C17.3735 13.1264 17.1425 13.0745 16.9115 13.0485C15.1921 12.8795 12.7156 12.9705 10.3032 13.0615C7.28775 13.1784 4.18248 13.2954 2.55285 12.8925C1.44932 12.6196 0.923218 11.4239 0.897555 10.4362Z" fill="white"/>
<path d="M31.8612 20.8328C31.8484 19.9881 32.5156 19.2993 33.3497 19.2993C34.1837 19.2863 34.8638 19.9621 34.8638 20.8068C34.8766 21.6516 34.2094 22.3404 33.3753 22.3404C32.5541 22.3404 31.874 21.6775 31.8612 20.8328ZM12.4211 22.5613C13.2552 22.5483 13.9224 21.8595 13.9096 21.0277C13.8968 20.183 13.2167 19.5072 12.3954 19.5202C11.5614 19.5332 10.8941 20.222 10.907 21.0537C10.907 21.8985 11.587 22.5743 12.4211 22.5613Z" fill="#E6193A"/>
</g>
<defs>
<clipPath id="clip0">
<rect width="44" height="37" fill="white"/>
</clipPath>
</defs>
</svg>
