<svg width="53" height="26" viewBox="0 0 53 26" fill="none" xmlns="http://www.w3.org/2000/svg">
<g clip-path="url(#clip0)">
<path d="M52.3641 14.7199C51.5547 13.8832 50.0805 12.3492 49.4301 11.3421L49.2855 11.1096C48.2015 9.42073 46.207 6.29081 43.6199 4.75684C41.0183 3.20738 31.7538 -0.371881 26.4205 0.0154853C22.5326 0.309883 15.754 4.95827 15.6818 5.00476C14.9447 5.51608 12.4153 6.08938 9.9872 6.6317C8.98992 6.84862 7.9782 7.08104 7.00983 7.31346C6.14264 7.53039 5.50669 8.33611 5.46333 9.29677L5.30435 12.7211C5.24654 13.9142 5.9981 14.9368 7.0821 15.1847L12.1407 16.3004C12.1696 16.3158 12.213 16.3158 12.2419 16.3158C12.0829 18.4231 13.4126 20.3754 15.3927 20.8093C15.6673 20.8713 15.9275 20.9023 16.2021 20.9023C16.9681 20.9023 17.7197 20.6698 18.3701 20.205C19.1072 19.6782 19.6564 18.9189 19.9455 18.0358L35.3671 21.4291C35.2948 22.3588 35.5261 23.2884 36.003 24.0942C36.5811 25.0393 37.4772 25.6901 38.5179 25.9225C38.7925 25.9845 39.0526 26.0155 39.3273 26.0155C40.0933 26.0155 40.8448 25.7831 41.4952 25.3182C42.2468 24.7914 42.7816 24.0322 43.0706 23.1335C43.0995 23.149 43.1429 23.1645 43.1718 23.1645L48.8086 24.404C48.9531 24.435 49.0976 24.4505 49.2422 24.4505C50.1816 24.4505 51.0344 23.7843 51.309 22.7926L52.8988 16.9046C53.1301 16.1144 52.9277 15.2777 52.3641 14.7199ZM17.8353 19.2908C17.1705 19.7557 16.39 19.9261 15.6095 19.7557C14.0196 19.3993 12.979 17.7259 13.3114 16.006C13.4704 15.1847 13.9185 14.4565 14.5833 13.9917C15.0747 13.6508 15.6384 13.4648 16.2021 13.4648C16.4044 13.4648 16.6068 13.4803 16.8091 13.5268C17.5751 13.6973 18.2544 14.1776 18.688 14.8903C19.1216 15.6031 19.2806 16.4398 19.1216 17.2765C18.9482 18.1132 18.5002 18.826 17.8353 19.2908ZM42.2324 22.3897C42.0734 23.2265 41.6253 23.9392 40.9605 24.404C40.2956 24.8689 39.5151 25.0393 38.7347 24.8689C37.9542 24.6984 37.2894 24.2181 36.8558 23.5054C36.4222 22.7926 36.2632 21.9559 36.4222 21.1192C36.5811 20.298 37.0292 19.5697 37.694 19.1049C38.1854 18.764 38.7491 18.5781 39.3128 18.5781C39.5151 18.5781 39.7175 18.5936 39.9198 18.64C40.7003 18.8105 41.3652 19.2908 41.7988 20.0036C42.2468 20.7163 42.3913 21.553 42.2324 22.3897ZM51.9449 16.5947L50.3551 22.4827C50.1961 23.087 49.618 23.4589 49.0398 23.3349L43.4031 22.0953C43.3742 22.0799 43.3308 22.0798 43.3019 22.0798C43.3742 21.1347 43.1574 20.205 42.666 19.4148C42.0878 18.4696 41.1917 17.8188 40.1511 17.5864C39.1105 17.354 38.0554 17.5709 37.1737 18.2062C36.4366 18.733 35.8874 19.4922 35.5983 20.3754L20.1767 16.9821C20.249 16.0524 20.0177 15.1228 19.5408 14.317C18.9627 13.3719 18.0666 12.7211 17.0259 12.4887C15.9853 12.2563 14.9302 12.4732 14.0486 13.1085C13.297 13.6353 12.7622 14.3945 12.4732 15.2932C12.4442 15.2777 12.4009 15.2622 12.372 15.2622L7.31335 14.1466C6.72077 14.0226 6.30162 13.4493 6.33053 12.7986L6.48951 9.37425C6.50397 8.90941 6.82194 8.50655 7.25554 8.39808C8.20945 8.16567 9.22117 7.93325 10.204 7.71632C12.9646 7.09653 15.3493 6.56972 16.2454 5.93444C17.604 4.97377 23.342 1.36352 26.5072 1.1311C31.4358 0.774723 40.4835 4.15255 43.1429 5.73301C45.5132 7.14302 47.4355 10.1335 48.4617 11.7449L48.6062 11.9773C49.2711 13.0155 50.6441 14.472 51.6703 15.5256C51.9449 15.789 52.0606 16.2074 51.9449 16.5947ZM40.9171 6.94159C37.5495 5.1752 30.0772 2.72705 27.0276 3.08342C25.033 3.31584 21.5642 5.05124 19.8298 6.05839C19.5119 6.24433 19.3529 6.60071 19.3962 6.97258C19.4541 7.34445 19.6998 7.63885 20.0466 7.71632L32.144 10.3814L44.0968 13.0155C44.1691 13.031 44.2414 13.031 44.2992 13.031C44.6171 13.031 44.9062 12.876 45.0941 12.5816C45.3253 12.2408 45.3398 11.7914 45.1375 11.4195C44.5015 10.2419 43.0996 8.0727 40.9171 6.94159ZM27.1432 4.15255C28.3139 4.0131 30.3952 4.38497 32.6643 5.00476L31.8549 9.20381L20.7549 6.75565C22.8795 5.57806 25.6545 4.32299 27.1432 4.15255ZM32.8522 9.42073L33.6471 5.28366C36.1331 6.01191 38.7202 7.00357 40.4835 7.91775C42.3913 8.90941 43.6632 10.8462 44.2703 11.9309L32.8522 9.42073ZM18.081 24.466L0.693767 17.2455C0.534782 17.1835 0.361343 17.199 0.231264 17.3075C0.0867315 17.416 0.0144653 17.5709 0.0144653 17.7568V24.9619C0.0144653 25.2563 0.245717 25.5042 0.520328 25.5042H17.922C18.1677 25.5042 18.3701 25.3182 18.4134 25.0548C18.4423 24.8069 18.3123 24.559 18.081 24.466ZM1.01174 24.435V18.5626L15.1904 24.435H1.01174Z" fill="white"/>
<path d="M17.8786 17.0131C17.6907 17.9893 16.7946 18.6246 15.8841 18.4231C14.9735 18.2217 14.3809 17.261 14.5688 16.2849C14.7567 15.3087 15.6528 14.6734 16.5634 14.8749C17.4739 15.0763 18.0665 16.037 17.8786 17.0131ZM39.6741 19.9726C38.7635 19.7712 37.8674 20.4064 37.6795 21.3826C37.4917 22.3588 38.0842 23.3194 38.9948 23.5209C39.9053 23.7223 40.8014 23.087 40.9893 22.1109C41.1917 21.1347 40.5991 20.174 39.6741 19.9726Z" fill="#E6193A"/>
</g>
<defs>
<clipPath id="clip0">
<rect width="53" height="26" fill="white"/>
</clipPath>
</defs>
</svg>
