<svg width="54" height="20" viewBox="0 0 54 20" fill="none" xmlns="http://www.w3.org/2000/svg">
<path d="M52.9593 8.15932C51.8813 7.6128 49.941 6.58483 49.0152 5.86915L48.7996 5.69999C47.2778 4.50285 44.437 2.27774 41.3045 1.47097C38.1087 0.625167 27.1768 -0.728119 21.3811 0.482031C17.158 1.36687 10.5887 6.33759 10.5126 6.38964C9.77705 6.96219 7.07578 7.86004 4.46328 8.73187C3.41068 9.0832 2.32002 9.44755 1.30546 9.79888C0.405041 10.1242 -0.127603 10.9179 0.0245807 11.7377L0.544543 14.5874C0.722091 15.5634 1.71129 16.279 2.89072 16.292L9.97996 16.3441C10.018 17.2159 10.3604 18.0357 10.9692 18.6603C11.6159 19.3369 12.491 19.7273 13.4168 19.7403C13.4295 19.7403 13.4421 19.7403 13.4548 19.7403C14.3679 19.7403 15.2303 19.376 15.8898 18.7254C16.4985 18.1138 16.8663 17.307 16.9297 16.4352L36.7644 16.6043C36.8024 17.4762 37.1448 18.296 37.7536 18.9205C38.4003 19.5972 39.2754 19.9876 40.2012 20.0006C40.2139 20.0006 40.2266 20.0006 40.2392 20.0006C41.1523 20.0006 42.0147 19.6362 42.6742 18.9856C43.2829 18.374 43.6507 17.5673 43.7141 16.6954L51.095 16.7605C51.1077 16.7605 51.1077 16.7605 51.1204 16.7605C52.3125 16.7605 53.289 16.0188 53.4032 15.0168L53.9865 9.88997C54.0753 9.1873 53.6695 8.51066 52.9593 8.15932ZM16.042 16.214C16.0293 17.6714 14.8625 18.8425 13.4548 18.8425C13.4421 18.8425 13.4295 18.8425 13.4168 18.8425C12.7193 18.8295 12.0725 18.5432 11.5906 18.0357C11.1087 17.5282 10.8423 16.8516 10.855 16.1489C10.8677 14.6915 12.0344 13.5204 13.4421 13.5204C13.4548 13.5204 13.4675 13.5204 13.4802 13.5204C14.1777 13.5334 14.8245 13.8197 15.3064 14.3272C15.7883 14.8217 16.0546 15.4983 16.042 16.214ZM42.0528 18.335C41.5709 18.8295 40.9241 19.0897 40.2392 19.0897C40.2266 19.0897 40.2139 19.0897 40.2012 19.0897C38.7681 19.0767 37.6267 17.8665 37.6394 16.3961C37.6521 14.9388 38.8189 13.7677 40.2266 13.7677C40.2392 13.7677 40.2519 13.7677 40.2646 13.7677C41.6977 13.7807 42.8391 14.9908 42.8264 16.4612C42.8264 17.1769 42.5474 17.8405 42.0528 18.335ZM53.1115 9.78587L52.5281 14.9127C52.4647 15.4462 51.8433 15.8626 51.095 15.8496L43.6634 15.7846C43.3717 14.145 41.9767 12.8828 40.2773 12.8568C40.2646 12.8568 40.2519 12.8568 40.2392 12.8568C38.5652 12.8568 37.1575 14.0799 36.8278 15.6935L16.8663 15.5113C16.7395 14.8217 16.4224 14.184 15.9278 13.6636C15.281 12.9869 14.406 12.5965 13.4802 12.5835C13.4675 12.5835 13.4548 12.5835 13.4421 12.5835C11.7681 12.5835 10.3731 13.7937 10.0307 15.4202L2.87803 15.3682C2.12979 15.3552 1.49569 14.9518 1.39424 14.4053L0.899639 11.5686C0.836229 11.2042 1.11523 10.8399 1.59715 10.6707C2.59903 10.3194 3.68968 9.95503 4.74229 9.6037C7.67183 8.62777 10.1956 7.78196 11.0579 7.13135C12.3895 6.10337 18.0584 2.12159 21.5586 1.3929C26.9992 0.247808 37.7916 1.497 41.0889 2.35581C44.0438 3.12354 46.7958 5.27058 48.267 6.42868L48.4825 6.59784C49.421 7.32653 51.2219 8.30246 52.5788 8.99211C52.9339 9.16127 53.1495 9.46056 53.1115 9.78587ZM38.7428 3.7091C36.5995 3.25366 33.15 2.83727 29.8907 2.6551C29.8654 2.6551 29.84 2.64208 29.8146 2.64208C29.8019 2.64208 29.7893 2.64208 29.7893 2.64208C26.8851 2.48593 24.1458 2.52497 22.662 2.88932C20.5314 3.40981 17.0438 5.42673 15.3191 6.54579C15.0401 6.72796 14.9133 7.04026 15.002 7.33954C15.0908 7.67787 15.4079 7.89908 15.7756 7.89908L43.5492 8.15932H43.5619C43.9931 8.15932 44.3609 7.9251 44.5004 7.56075C44.6272 7.23545 44.5258 6.88411 44.2594 6.64989C43.321 5.79107 41.3426 4.26863 38.7428 3.7091ZM22.8649 3.78717C24.1711 3.47487 26.6441 3.40981 29.3581 3.53994L29.3073 7.13135L16.2829 7.00122C18.0711 5.89517 21.026 4.22959 22.8649 3.78717ZM43.5619 7.26147L30.1951 7.13135L30.2458 3.57897C33.2261 3.76115 36.3712 4.12549 38.5525 4.59394C40.8733 5.08841 42.6742 6.44169 43.5873 7.24846C43.5873 7.26147 43.5746 7.26147 43.5619 7.26147Z" fill="white"/>
</svg>
