<svg width="55" height="23" viewBox="0 0 55 23" fill="none" xmlns="http://www.w3.org/2000/svg">
<g clip-path="url(#clip0)">
<path d="M35.0817 13.0734C34.3767 12.6547 33.0912 11.8579 32.4692 11.3042L32.331 11.1691C31.2943 10.2102 29.3592 8.44099 27.2305 7.81973C25.1018 7.19848 17.8173 6.23958 13.9746 7.33353C11.1548 8.13036 6.89748 12.2766 6.85601 12.3171C6.41369 12.7628 4.58911 13.5461 2.98569 14.2484C2.29456 14.5455 1.58961 14.8561 0.926129 15.1668C0.290291 15.4639 -0.0829183 16.1392 0.0276623 16.828L0.414694 19.1239C0.55292 19.9612 1.28552 20.569 2.15634 20.569H2.17016L5.99901 20.5285C6.24782 21.9331 7.50567 23.0135 9.01233 23.0135C9.02615 23.0135 9.03998 23.0135 9.03998 23.0135C10.5605 23 11.8183 21.8925 12.0257 20.461L23.5537 20.3394C23.8025 21.744 25.0603 22.8244 26.567 22.8244C26.5808 22.8244 26.5946 22.8244 26.5946 22.8244C27.4102 22.8109 28.1704 22.5003 28.751 21.9196C29.2071 21.4604 29.4974 20.8931 29.5803 20.2719L33.8515 20.2314C34.7361 20.2179 35.4687 19.5426 35.5378 18.6782L35.8281 14.532C35.8972 13.9378 35.5931 13.384 35.0817 13.0734ZM9.03998 22.0546C9.02615 22.0546 9.02615 22.0546 9.01233 22.0546C7.86506 22.0546 6.93895 21.1497 6.92512 20.0288C6.9113 18.9078 7.83741 17.9759 8.99851 17.9624C9.01233 17.9624 9.01233 17.9624 9.02615 17.9624C10.1734 17.9624 11.0995 18.8673 11.1134 19.9883C11.1272 21.1227 10.2011 22.0411 9.03998 22.0546ZM28.0737 21.2578C27.6866 21.6494 27.1614 21.8655 26.6085 21.8655C25.4612 21.879 24.5074 20.9742 24.4936 19.8397C24.4936 19.2995 24.7009 18.7728 25.088 18.3946C25.475 18.0029 26.0003 17.7868 26.5532 17.7868C26.567 17.7868 26.567 17.7868 26.5808 17.7868C27.1337 17.7868 27.6452 17.9894 28.046 18.3676C28.4469 18.7457 28.668 19.259 28.668 19.7992C28.6818 20.3529 28.4745 20.8661 28.0737 21.2578ZM34.5979 18.6107C34.5703 18.9888 34.2523 19.2725 33.8653 19.286L29.5941 19.3265C29.4836 18.7052 29.1933 18.138 28.7233 17.6923C28.1428 17.1386 27.3825 16.8415 26.5808 16.8415C26.567 16.8415 26.5532 16.8415 26.5532 16.8415C25.7376 16.855 24.9774 17.1656 24.3968 17.7463C23.9407 18.2055 23.6504 18.7728 23.5537 19.394L12.0257 19.5156C11.7768 18.111 10.519 17.0305 9.01233 17.0305C8.99851 17.0305 8.98469 17.0305 8.98469 17.0305C7.4642 17.044 6.20635 18.1515 5.99901 19.5831L2.17016 19.6236C2.17016 19.6236 2.17016 19.6236 2.15634 19.6236C1.75548 19.6236 1.42374 19.3535 1.36845 18.9618L0.981419 16.6659C0.939952 16.3958 1.07818 16.1257 1.32698 16.0176C1.97664 15.7205 2.6816 15.4099 3.37272 15.1127C5.29406 14.2754 6.96659 13.5461 7.53332 12.9789C8.37649 12.1415 11.998 8.87317 14.2373 8.23841C17.7482 7.2525 24.7839 8.08984 26.954 8.72461C28.8615 9.27833 30.6861 10.9665 31.6675 11.8579L31.8057 11.993C32.4416 12.5737 33.6718 13.3435 34.5703 13.8837C34.7776 14.0053 34.8882 14.2214 34.8744 14.4645L34.5979 18.6107ZM25.5718 9.67C22.8487 9.02173 17.0294 8.54903 14.8455 9.25132C13.09 9.81856 10.3255 12.0875 10.0076 12.3441C9.77257 12.5332 9.68964 12.8438 9.80022 13.1274C9.9108 13.411 10.1734 13.5866 10.4775 13.5866C10.4775 13.5866 10.4775 13.5866 10.4913 13.5866L19.6834 13.4921L28.7648 13.3975C29.0965 13.3975 29.4006 13.2085 29.525 12.8978C29.6632 12.6007 29.5941 12.2496 29.373 12.0065C28.7233 11.3312 27.3549 10.1022 25.5718 9.67ZM15.1634 10.1562C15.7992 9.95361 16.9188 9.85908 18.2182 9.85908C18.5223 9.85908 18.8402 9.85907 19.1719 9.87258L19.1996 12.5602L11.1825 12.6412C12.5094 11.6013 14.1681 10.4668 15.1634 10.1562ZM20.1533 12.5602L20.1257 9.9266C22.0194 10.0346 23.996 10.2777 25.3506 10.6019C26.7329 10.926 27.8387 11.8444 28.4745 12.4792L20.1533 12.5602ZM54.848 6.11803C54.7374 6.02349 54.5992 5.98297 54.4609 6.00998C52.9819 6.19906 51.5997 6.46917 50.5906 6.75279C48.1717 7.45508 46.2918 8.91368 43.9143 10.7775C42.4629 11.9119 40.8181 13.195 38.7585 14.5185C37.2104 15.5179 36.9754 17.5843 37.6527 19.0159C37.9844 19.7046 38.6894 20.1503 39.4773 20.1503H43.1403C43.3752 21.5684 44.6331 22.6624 46.1536 22.6624C47.6741 22.6624 48.9319 21.5684 49.1669 20.1503H54.5162C54.7789 20.1503 55 19.9342 55 19.6776V12.5467V8.80564V6.46917C55 6.33412 54.9447 6.19906 54.848 6.11803ZM54.0324 12.074H48.2131C48.144 12.074 48.1026 12.047 48.0749 11.9795C48.0611 11.9389 48.0611 11.8714 48.1164 11.8309C49.001 11.1556 50.3418 10.2777 51.6826 9.85908C52.3323 9.65649 53.134 9.49442 54.0186 9.34586V12.074H54.0324ZM46.1536 21.69C45.0063 21.69 44.0802 20.7851 44.0802 19.6641C44.0802 18.5432 45.0063 17.6383 46.1536 17.6383C47.3008 17.6383 48.227 18.5432 48.227 19.6641C48.2408 20.7851 47.3008 21.69 46.1536 21.69ZM46.1536 16.6794C44.6331 16.6794 43.3752 17.7598 43.1403 19.1779H39.4773C39.0764 19.1779 38.7032 18.9483 38.5373 18.5972C38.0397 17.5573 38.1918 16.0041 39.2976 15.2883C41.3848 13.9378 43.0573 12.6412 44.5225 11.4932C46.8171 9.69701 48.6278 8.27892 50.8671 7.64416C51.7102 7.40106 52.816 7.17146 54.0463 6.99589V8.38697C53.051 8.53553 52.1526 8.72461 51.42 8.9542C49.941 9.39989 48.5034 10.3588 47.5496 11.0746C47.1626 11.3582 47.0244 11.8309 47.1764 12.2766C47.3285 12.7223 47.7432 13.0059 48.227 13.0059H54.0463V19.1644H49.1807C48.9319 17.7733 47.6741 16.6794 46.1536 16.6794Z" fill="white"/>
<path d="M10.284 20.0018C10.2978 20.677 9.73112 21.2443 9.03999 21.2443C8.34886 21.2578 7.76831 20.7041 7.76831 20.0288C7.75449 19.3535 8.32122 18.7863 9.01234 18.7863C9.70347 18.7863 10.2702 19.3265 10.284 20.0018ZM26.567 18.5972C25.8759 18.6107 25.3092 19.1644 25.323 19.8397C25.3368 20.515 25.9035 21.0687 26.5947 21.0552C27.2858 21.0417 27.8525 20.488 27.8387 19.8127C27.8387 19.1374 27.2581 18.5972 26.567 18.5972ZM45.5177 6.15854C45.6007 5.91544 45.4486 5.64533 45.1998 5.5643C43.5964 5.0781 43.0159 4.06518 43.1679 2.05285C43.1817 1.87728 43.0988 1.71521 42.9468 1.62067C42.7947 1.52613 42.6012 1.52613 42.4491 1.60716C41.3157 2.24193 40.0855 2.34997 39.0488 1.90429C38.3024 1.58015 37.7909 1.02642 37.6389 0.378156C37.5974 0.148561 37.4039 0 37.1827 0C36.9616 0 36.7681 0.148561 36.7128 0.364651C36.1184 2.70112 34.8191 3.75455 32.6213 3.70053C32.3587 3.68702 32.1375 3.90311 32.1237 4.15972C32.1099 4.41632 32.331 4.63241 32.5936 4.64592C34.8605 4.71345 36.4225 3.74104 37.2795 1.72871C37.6251 2.16089 38.1089 2.52554 38.6756 2.76864C39.7537 3.22783 41.0116 3.22783 42.2003 2.78215C42.2418 4.74046 43.1264 5.92895 44.9234 6.48268C44.9648 6.49618 45.0201 6.50969 45.0616 6.50969C45.2689 6.48268 45.4625 6.36113 45.5177 6.15854ZM46.1536 20.7716C46.7894 20.7716 47.3009 20.2719 47.3009 19.6506C47.3009 19.0294 46.7894 18.5296 46.1536 18.5296C45.5177 18.5296 45.0063 19.0294 45.0063 19.6506C45.0201 20.2719 45.5316 20.7716 46.1536 20.7716Z" fill="#E6193A"/>
</g>
<defs>
<clipPath id="clip0">
<rect width="55" height="23" fill="white"/>
</clipPath>
</defs>
</svg>
