<svg width="34" height="45" viewBox="0 0 34 45" fill="none" xmlns="http://www.w3.org/2000/svg">
<path d="M20.3284 36.9157C20.5432 37.345 20.3284 37.9173 19.8274 38.0604C18.8969 38.4181 17.9663 38.6327 17.0358 38.6327C16.1053 38.6327 15.1032 38.4181 14.2442 38.0604C13.8148 37.8458 13.6 37.345 13.7432 36.9157C13.8863 36.4865 14.459 36.2719 14.8884 36.4149C16.2484 36.9873 17.7516 36.9873 19.1832 36.4149C19.6127 36.2003 20.1137 36.4865 20.3284 36.9157ZM11.1663 26.3275C10.379 26.3275 9.73476 26.9714 9.73476 27.7583C9.73476 28.5453 10.379 29.1892 11.1663 29.1892C11.9537 29.1892 12.5979 28.5453 12.5979 27.7583C12.5979 26.9714 11.9537 26.3275 11.1663 26.3275ZM22.8337 26.3275C22.0463 26.3275 21.4021 26.9714 21.4021 27.7583C21.4021 28.5453 22.0463 29.1892 22.8337 29.1892C23.6211 29.1892 24.2653 28.5453 24.2653 27.7583C24.2653 26.9714 23.6211 26.3275 22.8337 26.3275ZM33.9284 26.8283C33.7137 28.4738 32.7116 29.9046 31.0653 31.1208C30.6358 33.3386 27.9158 45 17.179 45H16.8211C6.08423 45 3.36423 33.4102 2.93475 31.1208C1.21686 29.9046 0.286333 28.4738 0.0715963 26.8283C-0.286298 24.2528 1.36002 22.1781 1.4316 22.1065L1.50318 22.035C1.4316 21.1765 1.50318 20.1033 1.78949 18.8871C1.78949 18.744 1.86107 18.6725 1.86107 18.601V18.4579C1.71791 13.593 2.36212 10.0159 2.36212 9.87281C3.29265 5.4372 7.37265 2.93323 10.7369 2.43243C12.24 2.21781 13.6 1.8601 14.6737 1.57393C14.8884 0.715421 15.819 0 16.9642 0C18.1811 0 19.1116 0.715421 19.2548 1.57393C20.3284 1.8601 21.76 2.21781 23.2632 2.43243C26.6274 2.93323 30.7074 5.4372 31.6379 9.80127C31.6379 9.94436 32.3537 13.5215 32.0674 18.5294C32.0674 18.601 32.0674 18.601 32.0674 18.6725C32.3537 19.9603 32.4969 21.0334 32.4253 21.9634L32.4969 22.035C32.64 22.1781 34.2863 24.2528 33.9284 26.8283ZM30.4927 19.6741C15.819 10.0159 4.79581 18.744 3.43581 19.9603C3.00633 22.1065 3.36423 23.1796 4.65265 23.6089H4.79581C4.79581 23.6089 6.37054 24.0382 9.73476 21.5342C9.80633 21.4626 12.1684 19.531 16.8211 19.531H17.179C21.8316 19.531 24.1937 21.4626 24.3369 21.5342C27.6295 24.1812 29.2042 23.6089 29.2042 23.6089H29.3474C30.7074 23.1796 30.9937 22.035 30.4927 19.6741ZM3.72212 17.5278C7.51581 14.8808 17.68 9.72973 30.4211 17.4563C30.5642 13.1638 29.9916 10.2305 29.9916 10.2305C29.2758 6.86804 25.9832 4.65024 23.12 4.29253C20.3284 3.93482 17.8948 3.07631 17.1074 2.86169C16.3916 3.14785 13.9579 3.93482 11.0948 4.29253C8.2316 4.72178 4.93897 6.86804 4.22318 10.3021C4.1516 10.2305 3.57896 13.3068 3.72212 17.5278ZM31.7095 24.1097C31.28 24.682 30.7074 25.0397 29.92 25.3259C29.7053 25.3975 29.3474 25.5405 28.7748 25.5405C27.6295 25.5405 25.7684 25.1113 23.1916 23.0366C23.1916 23.0366 21.1874 21.4626 17.179 21.4626H16.8211C12.8127 21.4626 10.88 23.0366 10.8084 23.0366C6.72844 26.0413 4.58107 25.6121 4.08002 25.3975C3.29265 25.1828 2.72002 24.7536 2.29054 24.1812C2.00423 24.8251 1.71791 25.6836 1.86107 26.6852C2.00423 27.9014 2.86318 28.9746 4.29475 29.9762C4.43791 30.1192 4.58107 30.2623 4.65265 30.4769C4.65265 30.5485 4.65265 30.62 4.65265 30.62C4.72423 31.1208 6.5137 43.283 16.8211 43.283H17.179C27.4863 43.283 29.2758 31.1208 29.3474 30.62C29.3474 30.5485 29.3474 30.5485 29.3474 30.4769C29.419 30.2623 29.5621 30.0477 29.7053 29.9046C31.1369 28.903 31.9242 27.8299 32.139 26.6137C32.2821 25.6121 31.9958 24.7536 31.7095 24.1097Z" fill="white"/>
</svg>
