<svg width="40" height="40" viewBox="0 0 40 40" fill="none" xmlns="http://www.w3.org/2000/svg">
<path d="M20 40C8.956 40 0 31.044 0 20C0 8.956 8.956 0 20 0C31.044 0 40 8.956 40 20C40 31.044 31.044 40 20 40Z" fill="url(#paint0_linear)"/>
<path d="M20 8.8079C23.644 8.8079 24.076 8.8199 25.516 8.8879C26.848 8.9479 27.572 9.1719 28.052 9.3599C28.688 9.6079 29.144 9.9039 29.62 10.3799C30.096 10.8559 30.392 11.3119 30.64 11.9479C30.828 12.4279 31.048 13.1519 31.112 14.4839C31.176 15.9239 31.192 16.3559 31.192 19.9999C31.192 23.6439 31.18 24.0759 31.112 25.5159C31.052 26.8479 30.828 27.5719 30.64 28.0519C30.392 28.6879 30.096 29.1439 29.62 29.6199C29.144 30.0959 28.688 30.3919 28.052 30.6399C27.572 30.8279 26.848 31.0479 25.516 31.1119C24.076 31.1759 23.644 31.1919 20 31.1919C16.356 31.1919 15.924 31.1799 14.484 31.1119C13.152 31.0519 12.428 30.8279 11.948 30.6399C11.312 30.3919 10.856 30.0959 10.38 29.6199C9.90399 29.1439 9.60799 28.6879 9.35999 28.0519C9.17199 27.5719 8.95199 26.8479 8.88799 25.5159C8.82399 24.0759 8.80799 23.6439 8.80799 19.9999C8.80799 16.3559 8.81999 15.9239 8.88799 14.4839C8.94799 13.1519 9.17199 12.4279 9.35999 11.9479C9.60799 11.3119 9.90399 10.8559 10.38 10.3799C10.856 9.9039 11.312 9.6079 11.948 9.3599C12.428 9.1719 13.152 8.9519 14.484 8.8879C15.924 8.8199 16.356 8.8079 20 8.8079ZM20 6.3479C16.292 6.3479 15.828 6.3639 14.372 6.4319C12.92 6.4999 11.928 6.7279 11.056 7.0679C10.16 7.4119 9.39599 7.8799 8.63999 8.6399C7.87999 9.3999 7.41599 10.1599 7.06399 11.0599C6.72799 11.9279 6.49599 12.9199 6.42799 14.3759C6.35999 15.8319 6.34399 16.2959 6.34399 20.0039C6.34399 23.7119 6.35999 24.1759 6.42799 25.6319C6.49599 27.0839 6.72399 28.0759 7.06399 28.9479C7.41199 29.8399 7.87999 30.6039 8.63999 31.3599C9.39999 32.1199 10.16 32.5839 11.06 32.9359C11.928 33.2719 12.92 33.5039 14.376 33.5719C15.832 33.6399 16.296 33.6559 20.004 33.6559C23.712 33.6559 24.176 33.6399 25.632 33.5719C27.084 33.5039 28.076 33.2759 28.948 32.9359C29.84 32.5879 30.604 32.1199 31.36 31.3599C32.12 30.5999 32.584 29.8399 32.936 28.9399C33.272 28.0719 33.504 27.0799 33.572 25.6239C33.64 24.1679 33.656 23.7039 33.656 19.9959C33.656 16.2879 33.64 15.8239 33.572 14.3679C33.504 12.9159 33.276 11.9239 32.936 11.0519C32.588 10.1599 32.12 9.3959 31.36 8.6399C30.6 7.8799 29.84 7.4159 28.94 7.0639C28.072 6.7279 27.08 6.4959 25.624 6.4279C24.172 6.3639 23.708 6.3479 20 6.3479Z" fill="white"/>
<path d="M20 12.9879C16.128 12.9879 12.988 16.1279 12.988 19.9999C12.988 23.8719 16.128 27.0119 20 27.0119C23.872 27.0119 27.012 23.8719 27.012 19.9999C27.012 16.1279 23.872 12.9879 20 12.9879ZM20 24.5519C17.488 24.5519 15.448 22.5159 15.448 19.9999C15.448 17.4839 17.488 15.4479 20 15.4479C22.512 15.4479 24.552 17.4839 24.552 19.9999C24.552 22.5159 22.512 24.5519 20 24.5519Z" fill="white"/>
<path d="M27.288 14.3518C28.1937 14.3518 28.928 13.6176 28.928 12.7118C28.928 11.8061 28.1937 11.0718 27.288 11.0718C26.3823 11.0718 25.648 11.8061 25.648 12.7118C25.648 13.6176 26.3823 14.3518 27.288 14.3518Z" fill="white"/>
<defs>
<linearGradient id="paint0_linear" x1="5.85786" y1="34.1421" x2="34.1421" y2="5.85786" gradientUnits="userSpaceOnUse">
<stop stop-color="#FFD521"/>
<stop offset="0.0551048" stop-color="#FFD020"/>
<stop offset="0.1241" stop-color="#FEC01E"/>
<stop offset="0.2004" stop-color="#FCA71B"/>
<stop offset="0.2821" stop-color="#FA8316"/>
<stop offset="0.3681" stop-color="#F85510"/>
<stop offset="0.4563" stop-color="#F51E09"/>
<stop offset="0.5" stop-color="#F30005"/>
<stop offset="0.5035" stop-color="#F20007"/>
<stop offset="0.5966" stop-color="#E1003B"/>
<stop offset="0.6879" stop-color="#D30067"/>
<stop offset="0.7757" stop-color="#C70088"/>
<stop offset="0.8589" stop-color="#BF00A0"/>
<stop offset="0.9357" stop-color="#BB00AF"/>
<stop offset="1" stop-color="#B900B4"/>
</linearGradient>
</defs>
</svg>
