<svg width="34" height="33" viewBox="0 0 34 33" fill="none" xmlns="http://www.w3.org/2000/svg">
<g clip-path="url(#clip0)">
<path d="M27.5758 31.6679H8.84848V30.1541H27.5758C28.6061 30.1541 29.3333 29.6697 29.7576 28.6404L31.1515 29.2459C30.7879 30.1541 29.7576 31.6679 27.5758 31.6679ZM18.303 2.78532C18.3636 2.54312 18.5455 1.51376 19.8788 1.51376H20.0606C20.0606 1.51376 20.6667 1.39266 21.1515 1.75596C21.5152 2.05871 21.7576 2.54312 21.8182 3.33027C21.8182 3.39082 22.3636 8.35596 20.7879 11.444L20.2424 12.5339H31.6364H31.7576C31.7576 12.5339 32.1818 12.4734 32.4242 13.2L33.8182 12.655C33.2727 11.2018 32.1818 10.9596 31.5758 11.0202H22.5455C23.7576 7.56881 23.2727 3.33027 23.2727 3.14862C23.1515 1.93761 22.7273 1.02936 22 0.484403C21.1515 -0.181652 20.1212 -0.060551 19.8182 -5.84871e-07C17.6364 0.0605499 16.9091 1.75596 16.7879 2.72477C16.7879 9.86972 10.7273 12.1706 8.84848 12.7761L9.27273 14.2294C11.3939 13.6239 18.303 10.8991 18.303 2.78532ZM6.30303 12.1706H0.484848V13.6844H4.78788V31.4862H0V33H6.30303V12.1706ZM31.3939 16.833C31.3939 16.4092 31.0303 16.0459 30.6061 16.0459H29.697C29.2727 16.0459 28.9091 16.4092 28.9091 16.833C28.9091 17.2569 29.3333 17.5596 29.697 17.5596H30.6061C31.0909 17.5596 31.3939 17.1963 31.3939 16.833ZM34 14.8349L32.4848 14.5321C32.3636 15.0771 32 16.0459 30.6061 16.0459H30.5455V17.5596H30.6061C32.7273 17.5596 33.7576 16.167 34 14.8349ZM30.8485 21.556C30.8485 21.1321 30.4848 20.7688 30.0606 20.7688H29.1515C28.7273 20.7688 28.3636 21.1321 28.3636 21.556C28.3636 21.9798 28.7273 22.3431 29.1515 22.3431H30.0606C30.4848 22.3431 30.8485 21.9798 30.8485 21.556ZM33.4545 19.5578L31.9394 19.3156C31.8182 19.8605 31.4545 20.8294 30.0606 20.8294H30V22.3431H30.0606C32.1818 22.3431 33.2121 20.8899 33.4545 19.5578ZM29.697 26.3394C29.697 25.9156 29.3333 25.5523 28.9091 25.5523H28C27.5758 25.5523 27.2121 25.9156 27.2121 26.3394C27.2121 26.7633 27.5758 27.1266 28 27.1266H28.9091C29.3333 27.1266 29.697 26.7633 29.697 26.3394ZM32.2424 24.3413L30.7273 24.0991C30.6061 24.644 30.2424 25.6128 28.8485 25.6128H28.7879V27.1266H28.8485C30.9697 27.1266 32 25.7339 32.2424 24.3413Z" fill="white"/>
</g>
<defs>
<clipPath id="clip0">
<rect width="34" height="33" fill="white"/>
</clipPath>
</defs>
</svg>
