<svg width="225" height="62" viewBox="0 0 225 62" fill="none" xmlns="http://www.w3.org/2000/svg">
<path d="M6.97398 0.291992C8.52865 0.291992 9.92198 0.636659 11.154 1.32599C12.386 2.00066 13.3467 2.94666 14.036 4.16399C14.74 5.38133 15.092 6.75999 15.092 8.29999C15.092 9.83999 14.74 11.2187 14.036 12.436C13.3467 13.6533 12.386 14.6067 11.154 15.296C9.92198 15.9707 8.52865 16.308 6.97398 16.308C5.55132 16.308 4.26798 16.0587 3.12398 15.56C1.99465 15.0613 1.05598 14.3427 0.307983 13.404L3.05798 10.896C4.08465 12.0987 5.31665 12.7 6.75398 12.7C7.67798 12.7 8.46265 12.4507 9.10798 11.952C9.76798 11.4387 10.2227 10.7347 10.472 9.83999H4.90598V6.62799H10.428C10.1787 5.77733 9.73132 5.10999 9.08598 4.62599C8.44065 4.14199 7.66332 3.89999 6.75398 3.89999C5.31665 3.89999 4.08465 4.50133 3.05798 5.70399L0.307983 3.19599C1.05598 2.25733 1.99465 1.53866 3.12398 1.03999C4.26798 0.541326 5.55132 0.291992 6.97398 0.291992Z" fill="white"/>
<path d="M28.661 7.94799C29.5703 8.24133 30.2597 8.69599 30.729 9.31199C31.213 9.92799 31.455 10.6907 31.455 11.6C31.455 12.964 30.9197 14.042 29.849 14.834C28.793 15.6113 27.2897 16 25.339 16H17.441V0.599992H24.921C26.769 0.599992 28.199 0.951992 29.211 1.65599C30.2377 2.34533 30.751 3.32799 30.751 4.60399C30.751 5.35199 30.5677 6.01199 30.201 6.58399C29.849 7.15599 29.3357 7.61066 28.661 7.94799ZM21.731 6.75999H24.503C25.735 6.75999 26.351 6.25399 26.351 5.24199C26.351 4.22999 25.735 3.72399 24.503 3.72399H21.731V6.75999ZM25.163 12.876C26.4243 12.876 27.055 12.3407 27.055 11.27C27.055 10.2287 26.4243 9.70799 25.163 9.70799H21.731V12.876H25.163Z" fill="white"/>
<path d="M44.4381 13.008H37.9261L36.7161 16H32.2721L39.0701 0.599992H43.3601L50.1801 16H45.6481L44.4381 13.008ZM43.1621 9.79599L41.1821 4.86799L39.2021 9.79599H43.1621Z" fill="white"/>
<path d="M58.1709 10.104H56.1909V16H51.8569V0.599992H56.1909V6.58399H58.2809L61.9549 0.599992H66.5309L61.7129 8.03599L66.5749 16H61.6689L58.1709 10.104Z" fill="white"/>
<path d="M82.9675 0.599992L76.5875 12.502C75.9128 13.778 75.0842 14.746 74.1015 15.406C73.1335 16.066 72.0702 16.396 70.9115 16.396C70.0608 16.396 69.1515 16.2053 68.1835 15.824L69.2175 12.612C69.8188 12.788 70.3322 12.876 70.7575 12.876C71.1828 12.876 71.5568 12.7807 71.8795 12.59C72.2168 12.3993 72.5248 12.0987 72.8035 11.688L66.8195 0.599992H71.4175L75.0035 8.03599L78.7215 0.599992H82.9675Z" fill="white"/>
<path d="M94.4537 13.008H87.9417L86.7317 16H82.2877L89.0857 0.599992H93.3757L100.196 16H95.6637L94.4537 13.008ZM93.1777 9.79599L91.1977 4.86799L89.2177 9.79599H93.1777Z" fill="white"/>
<path d="M113.595 4.05399H108.887V16H104.597V4.05399H99.8671V0.599992H113.595V4.05399Z" fill="white"/>
<path d="M122.956 16.308C121.328 16.308 119.862 15.9633 118.556 15.274C117.266 14.5847 116.246 13.6313 115.498 12.414C114.765 11.1967 114.398 9.82533 114.398 8.29999C114.398 6.77466 114.765 5.40333 115.498 4.18599C116.246 2.96866 117.266 2.01533 118.556 1.32599C119.862 0.636659 121.328 0.291992 122.956 0.291992C124.584 0.291992 126.044 0.636659 127.334 1.32599C128.64 2.01533 129.659 2.96866 130.392 4.18599C131.14 5.40333 131.514 6.77466 131.514 8.29999C131.514 9.82533 131.14 11.1967 130.392 12.414C129.659 13.6313 128.64 14.5847 127.334 15.274C126.044 15.9633 124.584 16.308 122.956 16.308ZM122.956 12.7C123.734 12.7 124.438 12.5167 125.068 12.15C125.699 11.7833 126.198 11.27 126.564 10.61C126.931 9.93533 127.114 9.16533 127.114 8.29999C127.114 7.43466 126.931 6.67199 126.564 6.01199C126.198 5.33733 125.699 4.81666 125.068 4.44999C124.438 4.08333 123.734 3.89999 122.956 3.89999C122.179 3.89999 121.475 4.08333 120.844 4.44999C120.214 4.81666 119.715 5.33733 119.348 6.01199C118.982 6.67199 118.798 7.43466 118.798 8.29999C118.798 9.16533 118.982 9.93533 119.348 10.61C119.715 11.27 120.214 11.7833 120.844 12.15C121.475 12.5167 122.179 12.7 122.956 12.7Z" fill="white"/>
<path d="M140.883 0.599992C142.277 0.599992 143.487 0.834659 144.513 1.30399C145.54 1.75866 146.332 2.41866 146.889 3.28399C147.447 4.13466 147.725 5.13933 147.725 6.29799C147.725 7.45666 147.447 8.46133 146.889 9.31199C146.332 10.1627 145.54 10.8227 144.513 11.292C143.487 11.7467 142.277 11.974 140.883 11.974H138.199V16H133.843V0.599992H140.883ZM140.619 8.54199C141.514 8.54199 142.189 8.35133 142.643 7.96999C143.098 7.57399 143.325 7.01666 143.325 6.29799C143.325 5.57933 143.098 5.02199 142.643 4.62599C142.189 4.22999 141.514 4.03199 140.619 4.03199H138.199V8.54199H140.619Z" fill="white"/>
<path d="M7.87598 32.104H5.89598V38H1.56198V22.6H5.89598V28.584H7.98598L11.66 22.6H16.236L11.418 30.036L16.28 38H11.374L7.87598 32.104Z" fill="white"/>
<path d="M27.9381 35.008H21.4261L20.2161 38H15.7721L22.5701 22.6H26.8601L33.6801 38H29.1481L27.9381 35.008ZM26.6621 31.796L24.6821 26.868L22.7021 31.796H26.6621Z" fill="white"/>
<path d="M42.4849 22.6C43.8782 22.6 45.0882 22.8347 46.1149 23.304C47.1416 23.7587 47.9336 24.4187 48.4909 25.284C49.0482 26.1347 49.3269 27.1393 49.3269 28.298C49.3269 29.4567 49.0482 30.4613 48.4909 31.312C47.9336 32.1627 47.1416 32.8227 46.1149 33.292C45.0882 33.7467 43.8782 33.974 42.4849 33.974H39.8009V38H35.4449V22.6H42.4849ZM42.2209 30.542C43.1156 30.542 43.7902 30.3513 44.2449 29.97C44.6996 29.574 44.9269 29.0167 44.9269 28.298C44.9269 27.5793 44.6996 27.022 44.2449 26.626C43.7902 26.23 43.1156 26.032 42.2209 26.032H39.8009V30.542H42.2209Z" fill="white"/>
<path d="M61.1529 35.008H54.6409L53.4309 38H48.9869L55.7849 22.6H60.0749L66.8949 38H62.3629L61.1529 35.008ZM59.8769 31.796L57.8969 26.868L55.9169 31.796H59.8769Z" fill="white"/>
<path d="M79.9238 26.054H72.9498V38H68.6598V22.6H79.9457L79.9238 26.054Z" fill="white"/>
<path d="M89.4908 35.008H82.9788L81.7688 38H77.3248L84.1228 22.6H88.4128L95.2328 38H90.7008L89.4908 35.008ZM88.2148 31.796L86.2348 26.868L84.2548 31.796H88.2148Z" fill="white"/>
<path d="M111.65 22.6V38H107.294V31.994H101.354V38H96.9976V22.6H101.354V28.386H107.294V22.6H111.65Z" fill="white"/>
<path d="M131.46 34.546V41.102H127.478V38H117.622V41.102H113.618V34.546H114.168C115.077 34.5313 115.715 33.908 116.082 32.676C116.463 31.444 116.698 29.6693 116.786 27.352L116.962 22.6H129.37V34.546H131.46ZM120.592 27.726C120.533 29.3687 120.401 30.762 120.196 31.906C119.99 33.05 119.675 33.93 119.25 34.546H125.08V26.054H120.658L120.592 27.726Z" fill="white"/>
<path d="M141.397 27.506C143.289 27.506 144.748 27.9313 145.775 28.782C146.801 29.618 147.315 30.8647 147.315 32.522C147.315 34.2967 146.743 35.6533 145.599 36.592C144.455 37.5307 142.863 38 140.825 38H133.543V22.6H137.833V27.506H141.397ZM140.539 34.876C141.272 34.876 141.851 34.678 142.277 34.282C142.717 33.886 142.937 33.3287 142.937 32.61C142.937 31.2753 142.137 30.608 140.539 30.608H137.833V34.876H140.539ZM149.009 22.6H153.299V38H149.009V22.6Z" fill="white"/>
<path d="M7.42799 60.212V61.52H1.12799V53.12H7.25999V54.428H2.68799V56.612H6.74399V57.896H2.68799V60.212H7.42799Z" fill="white"/>
<path d="M16.7299 53.12L13.0699 61.52H11.5339L7.86187 53.12H9.55387L12.3499 59.6L15.1699 53.12H16.7299Z" fill="white"/>
<path d="M22.7947 59.576H18.5947L17.7667 61.52H16.1587L19.9387 53.12H21.4747L25.2667 61.52H23.6347L22.7947 59.576ZM22.2787 58.352L20.6947 54.68L19.1227 58.352H22.2787Z" fill="white"/>
<path d="M29.227 58.004L27.895 59.372V61.52H26.335V53.12H27.895V57.428L32.047 53.12H33.799L30.271 56.876L34.015 61.52H32.191L29.227 58.004Z" fill="white"/>
<path d="M38.572 61.64C37.412 61.64 36.508 61.316 35.86 60.668C35.212 60.012 34.888 59.076 34.888 57.86V53.12H36.448V57.8C36.448 59.448 37.16 60.272 38.584 60.272C40 60.272 40.708 59.448 40.708 57.8V53.12H42.244V57.86C42.244 59.076 41.92 60.012 41.272 60.668C40.632 61.316 39.732 61.64 38.572 61.64Z" fill="white"/>
<path d="M49.701 59.576H45.501L44.673 61.52H43.065L46.845 53.12H48.381L52.173 61.52H50.541L49.701 59.576ZM49.185 58.352L47.601 54.68L46.029 58.352H49.185Z" fill="white"/>
<path d="M54.5234 54.44H51.7394V53.12H58.8674V54.44H56.0834V61.52H54.5234V54.44Z" fill="white"/>
<path d="M63.845 61.64C62.989 61.64 62.217 61.456 61.529 61.088C60.841 60.712 60.301 60.196 59.909 59.54C59.517 58.876 59.321 58.136 59.321 57.32C59.321 56.504 59.517 55.768 59.909 55.112C60.301 54.448 60.841 53.932 61.529 53.564C62.217 53.188 62.989 53 63.845 53C64.701 53 65.473 53.188 66.161 53.564C66.849 53.932 67.389 54.444 67.781 55.1C68.173 55.756 68.369 56.496 68.369 57.32C68.369 58.144 68.173 58.884 67.781 59.54C67.389 60.196 66.849 60.712 66.161 61.088C65.473 61.456 64.701 61.64 63.845 61.64ZM63.845 60.272C64.405 60.272 64.909 60.148 65.357 59.9C65.805 59.644 66.157 59.292 66.413 58.844C66.669 58.388 66.797 57.88 66.797 57.32C66.797 56.76 66.669 56.256 66.413 55.808C66.157 55.352 65.805 55 65.357 54.752C64.909 54.496 64.405 54.368 63.845 54.368C63.285 54.368 62.781 54.496 62.333 54.752C61.885 55 61.533 55.352 61.277 55.808C61.021 56.256 60.893 56.76 60.893 57.32C60.893 57.88 61.021 58.388 61.277 58.844C61.533 59.292 61.885 59.644 62.333 59.9C62.781 60.148 63.285 60.272 63.845 60.272Z" fill="white"/>
<path d="M75.5185 61.52L73.8025 59.06C73.7305 59.068 73.6225 59.072 73.4785 59.072H71.5825V61.52H70.0225V53.12H73.4785C74.2065 53.12 74.8385 53.24 75.3745 53.48C75.9185 53.72 76.3345 54.064 76.6225 54.512C76.9105 54.96 77.0545 55.492 77.0545 56.108C77.0545 56.74 76.8985 57.284 76.5865 57.74C76.2825 58.196 75.8425 58.536 75.2665 58.76L77.1985 61.52H75.5185ZM75.4825 56.108C75.4825 55.572 75.3065 55.16 74.9545 54.872C74.6025 54.584 74.0865 54.44 73.4065 54.44H71.5825V57.788H73.4065C74.0865 57.788 74.6025 57.644 74.9545 57.356C75.3065 57.06 75.4825 56.644 75.4825 56.108Z" fill="white"/>
<path d="M78.3084 57.56H81.6084V58.808H78.3084V57.56Z" fill="white"/>
<path d="M86.2856 58.004L84.9536 59.372V61.52H83.3936V53.12H84.9536V57.428L89.1056 53.12H90.8576L87.3296 56.876L91.0736 61.52H89.2496L86.2856 58.004Z" fill="white"/>
<path d="M97.2205 59.576H93.0205L92.1925 61.52H90.5845L94.3645 53.12H95.9005L99.6925 61.52H98.0605L97.2205 59.576ZM96.7045 58.352L95.1205 54.68L93.5485 58.352H96.7045Z" fill="white"/>
<path d="M106.257 61.52L104.541 59.06C104.469 59.068 104.361 59.072 104.217 59.072H102.321V61.52H100.761V53.12H104.217C104.945 53.12 105.577 53.24 106.113 53.48C106.657 53.72 107.073 54.064 107.361 54.512C107.649 54.96 107.793 55.492 107.793 56.108C107.793 56.74 107.637 57.284 107.325 57.74C107.021 58.196 106.581 58.536 106.005 58.76L107.937 61.52H106.257ZM106.221 56.108C106.221 55.572 106.045 55.16 105.693 54.872C105.341 54.584 104.825 54.44 104.145 54.44H102.321V57.788H104.145C104.825 57.788 105.341 57.644 105.693 57.356C106.045 57.06 106.221 56.644 106.221 56.108Z" fill="white"/>
<path d="M114.986 59.576H110.786L109.958 61.52H108.35L112.13 53.12H113.666L117.458 61.52H115.826L114.986 59.576ZM114.47 58.352L112.886 54.68L111.314 58.352H114.47Z" fill="white"/>
<path d="M124.145 57.224H125.621V60.572C125.189 60.916 124.685 61.18 124.109 61.364C123.533 61.548 122.941 61.64 122.333 61.64C121.477 61.64 120.705 61.456 120.017 61.088C119.329 60.712 118.789 60.196 118.397 59.54C118.005 58.884 117.809 58.144 117.809 57.32C117.809 56.496 118.005 55.756 118.397 55.1C118.789 54.444 119.329 53.932 120.017 53.564C120.713 53.188 121.493 53 122.357 53C123.061 53 123.701 53.116 124.277 53.348C124.853 53.58 125.337 53.92 125.729 54.368L124.745 55.328C124.105 54.688 123.333 54.368 122.429 54.368C121.837 54.368 121.309 54.492 120.845 54.74C120.389 54.988 120.029 55.336 119.765 55.784C119.509 56.232 119.381 56.744 119.381 57.32C119.381 57.88 119.509 58.384 119.765 58.832C120.029 59.28 120.389 59.632 120.845 59.888C121.309 60.144 121.833 60.272 122.417 60.272C123.073 60.272 123.649 60.128 124.145 59.84V57.224Z" fill="white"/>
<path d="M133.127 59.576H128.927L128.099 61.52H126.491L130.271 53.12H131.807L135.599 61.52H133.967L133.127 59.576ZM132.611 58.352L131.027 54.68L129.455 58.352H132.611Z" fill="white"/>
<path d="M144.131 53.12V61.52H142.847L138.215 55.832V61.52H136.667V53.12H137.951L142.583 58.808V53.12H144.131Z" fill="white"/>
<path d="M146.382 53.12H150.054C150.95 53.12 151.746 53.296 152.442 53.648C153.138 53.992 153.678 54.484 154.062 55.124C154.446 55.756 154.638 56.488 154.638 57.32C154.638 58.152 154.446 58.888 154.062 59.528C153.678 60.16 153.138 60.652 152.442 61.004C151.746 61.348 150.95 61.52 150.054 61.52H146.382V53.12ZM149.982 60.2C150.598 60.2 151.138 60.084 151.602 59.852C152.074 59.612 152.434 59.276 152.682 58.844C152.938 58.404 153.066 57.896 153.066 57.32C153.066 56.744 152.938 56.24 152.682 55.808C152.434 55.368 152.074 55.032 151.602 54.8C151.138 54.56 150.598 54.44 149.982 54.44H147.942V60.2H149.982Z" fill="white"/>
<path d="M159.557 58.556V61.52H157.997V58.58L154.697 53.12H156.365L158.825 57.212L161.309 53.12H162.845L159.557 58.556Z" fill="white"/>
<path d="M163.757 61.604C163.485 61.604 163.253 61.512 163.061 61.328C162.869 61.136 162.773 60.896 162.773 60.608C162.773 60.312 162.865 60.072 163.049 59.888C163.241 59.704 163.477 59.612 163.757 59.612C164.037 59.612 164.269 59.704 164.453 59.888C164.645 60.072 164.741 60.312 164.741 60.608C164.741 60.896 164.645 61.136 164.453 61.328C164.261 61.512 164.029 61.604 163.757 61.604Z" fill="white"/>
<path d="M169.243 58.004L167.911 59.372V61.52H166.351V53.12H167.911V57.428L172.063 53.12H173.815L170.287 56.876L174.031 61.52H172.207L169.243 58.004Z" fill="white"/>
<path d="M181.621 60.2V61.52H174.457V60.476L179.401 54.44H174.541V53.12H181.465V54.164L176.521 60.2H181.621Z" fill="white"/>
<path fill-rule="evenodd" clip-rule="evenodd" d="M168.33 7.43921V0H171.661V7.43921H168.33ZM168.33 31.6444V18.4315H171.661V31.6444H168.33ZM181.011 26.95C179.912 27.3122 178.812 28.0877 178.127 29.7312C177.516 31.1976 177.855 32.5907 178.692 33.8738C179.554 35.194 180.834 36.1993 181.608 36.6232L180.009 39.5454C178.823 38.896 177.105 37.5363 175.903 35.6939C174.676 33.8144 173.887 31.2473 175.052 28.4501C176.144 25.8299 178.041 24.4218 179.968 23.7865C181.829 23.1731 183.684 23.2845 184.884 23.5906L185.088 23.6424L193.066 28.004L204.619 25.6712L219.914 34.155L225 48.2297V51.5369L224.859 51.8578C224.289 53.15 223.117 54.9745 221.375 56.4266C219.608 57.8993 217.165 59.0544 214.16 58.7266L213.96 58.7048L211.329 57.7479L212.467 54.6174L214.71 55.4329C216.507 55.5733 218.017 54.8895 219.242 53.8679C220.398 52.9047 221.226 51.6962 221.669 50.8139V48.8131L217.206 36.4619L204.076 29.1791L192.535 31.5096L183.876 26.776C183.171 26.6335 182.077 26.5986 181.011 26.95ZM200.753 52.5675L190.204 45.4614L192.066 42.6988L202.614 49.8049L200.753 52.5675Z" fill="#E6193A"/>
<path d="M169.773 38.5281C171.674 38.5281 173.215 36.9871 173.215 35.0861C173.215 35.0087 173.213 34.9324 173.208 34.8572L176.532 34.642C176.541 34.7888 176.546 34.9369 176.546 35.0861C176.546 38.8267 173.514 41.8591 169.773 41.8591C166.032 41.8591 163 38.8267 163 35.0861C163 31.3455 166.032 28.3131 169.773 28.3131C169.885 28.3131 169.996 28.3158 170.106 28.3212L169.945 31.6482C169.888 31.6455 169.831 31.6441 169.773 31.6441C167.872 31.6441 166.331 33.1851 166.331 35.0861C166.331 36.9871 167.872 38.5281 169.773 38.5281Z" fill="#E6193A"/>
<path fill-rule="evenodd" clip-rule="evenodd" d="M169.773 17.2102C171.674 17.2102 173.215 15.6692 173.215 13.7682C173.215 11.8672 171.674 10.3262 169.773 10.3262C167.872 10.3262 166.331 11.8672 166.331 13.7682C166.331 15.6692 167.872 17.2102 169.773 17.2102ZM169.773 20.5412C173.514 20.5412 176.546 17.5088 176.546 13.7682C176.546 10.0276 173.514 6.99518 169.773 6.99518C166.032 6.99518 163 10.0276 163 13.7682C163 17.5088 166.032 20.5412 169.773 20.5412Z" fill="#E6193A"/>
<path fill-rule="evenodd" clip-rule="evenodd" d="M185.916 44.5241C187.817 44.5241 189.358 42.9831 189.358 41.0821C189.358 39.1811 187.817 37.6401 185.916 37.6401C184.015 37.6401 182.474 39.1811 182.474 41.0821C182.474 42.9831 184.015 44.5241 185.916 44.5241ZM185.916 47.8551C189.657 47.8551 192.689 44.8227 192.689 41.0821C192.689 37.3415 189.657 34.3091 185.916 34.3091C182.176 34.3091 179.143 37.3415 179.143 41.0821C179.143 44.8227 182.176 47.8551 185.916 47.8551Z" fill="#E6193A"/>
<path fill-rule="evenodd" clip-rule="evenodd" d="M207.013 56.9599C208.914 56.9599 210.455 55.4189 210.455 53.5179C210.455 51.6169 208.914 50.0759 207.013 50.0759C205.112 50.0759 203.571 51.6169 203.571 53.5179C203.571 55.4189 205.112 56.9599 207.013 56.9599ZM207.013 60.2909C210.753 60.2909 213.786 57.2585 213.786 53.5179C213.786 49.7773 210.753 46.7449 207.013 46.7449C203.272 46.7449 200.24 49.7773 200.24 53.5179C200.24 57.2585 203.272 60.2909 207.013 60.2909Z" fill="#E6193A"/>
<rect x="1" y="44" width="153" height="3" fill="#E6193A"/>
</svg>
