<svg width="54" height="27" viewBox="0 0 54 27" fill="none" xmlns="http://www.w3.org/2000/svg">
<g clip-path="url(#clip0)">
<path d="M15.6019 14.0245C15.5441 13.1937 15.183 12.32 14.6051 11.6181C14.6051 11.6181 14.6051 11.6181 14.6051 11.6038L16.8154 5.22979L25.3965 14.5545C25.8443 15.0415 26.4655 15.3279 27.1445 15.3423C27.1589 15.3423 27.1878 15.3423 27.2022 15.3423C27.8523 15.3423 28.4591 15.0988 28.9213 14.6404L30.626 12.9645C31.1027 12.4919 31.3483 11.8616 31.3339 11.2027C31.3194 10.5438 31.0305 9.92793 30.5393 9.46957L20.5136 0.40273C19.9069 -0.141567 18.9968 -0.127244 18.4189 0.445701L16.3098 2.53695C15.8186 3.02395 15.7319 3.7831 16.0787 4.35605L13.8106 10.859C13.2761 10.4865 12.6549 10.243 11.9615 10.2144C7.20867 10.0139 0.65008 9.05419 0.577849 9.03987C0.433387 9.02554 0.288925 9.06851 0.173355 9.16878C0.0577849 9.25472 0 9.39795 0 9.54119V23.7502C0 23.7645 0 23.7645 0 23.7789C0 23.7932 0 23.8218 0 23.8362C0 23.8505 0.0144462 23.8648 0.0144462 23.8791C0.0144462 23.8934 0.0288925 23.9078 0.0288925 23.9221C0.0288925 23.9364 0.0433387 23.9507 0.0577849 23.9794C0.0577849 23.9937 0.0722311 23.9937 0.0722311 24.008C0.0722311 24.008 0.0722311 24.0224 0.0866774 24.0224L0.101124 24.0367C0.11557 24.051 0.130016 24.0797 0.144462 24.094C0.144462 24.094 0.144462 24.094 0.158909 24.1083C0.173355 24.1226 0.202247 24.1513 0.23114 24.1656C0.23114 24.1656 0.245586 24.1656 0.245586 24.1799C0.260032 24.1942 0.288925 24.2086 0.317817 24.2086H0.332263C0.361156 24.2229 0.390048 24.2229 0.418941 24.2372H0.433387C0.462279 24.2372 0.491172 24.2515 0.520064 24.2515C0.548957 24.2515 0.577849 24.2515 0.606742 24.2372C0.621188 24.2372 0.621188 24.2372 0.621188 24.2372C0.65008 24.2372 0.678973 24.2229 0.707865 24.2086C0.722311 24.1942 0.751204 24.1942 0.76565 24.1799L5.50401 21.3725C5.95185 21.9168 6.55859 22.3035 7.26645 22.4754C7.54093 22.547 7.81541 22.5757 8.08989 22.5757C8.68218 22.5757 9.27448 22.4181 9.80899 22.103C11.2536 21.2436 11.8026 19.4818 11.1958 17.9921L14.5762 15.9868C15.2552 15.5858 15.6597 14.8123 15.6019 14.0245ZM17.0321 3.25313L19.1413 1.14756C19.2424 1.04729 19.3724 1.00432 19.5024 1.00432C19.618 1.00432 19.748 1.04729 19.8491 1.13323L29.8748 10.2144C30.1637 10.4722 30.3226 10.8303 30.3371 11.2314C30.3515 11.6181 30.1926 11.9905 29.9181 12.2627L28.2424 13.9242C27.9679 14.1964 27.5923 14.3539 27.2022 14.3396C26.8122 14.3253 26.451 14.1677 26.1766 13.8812L17.0177 3.94066C16.8299 3.74013 16.8299 3.43933 17.0321 3.25313ZM9.27448 21.2436C8.16212 21.9025 6.73194 21.5444 6.06742 20.4415C5.40289 19.3385 5.76405 17.9205 6.8764 17.2616C7.41091 16.9465 8.04655 16.8462 8.65329 17.0038C9.26003 17.1614 9.76565 17.5338 10.0979 18.0637C10.748 19.1667 10.3868 20.5847 9.27448 21.2436ZM14.0417 15.1274L10.6613 17.1327C10.2135 16.5884 9.60674 16.2017 8.89888 16.0298C8.0321 15.8149 7.13644 15.9438 6.35634 16.4022C4.91172 17.2616 4.36276 19.0234 4.9695 20.5131L1.01124 22.8621V10.1141C2.73034 10.3576 7.94543 11.0452 11.9181 11.2171C13.4061 11.2743 14.504 12.764 14.6051 14.0961C14.634 14.5115 14.4173 14.9125 14.0417 15.1274ZM52.2953 12.9216L46.7913 11.747V7.86533C46.7913 6.877 46.0546 6.07488 45.0578 5.97461L34.1364 4.94331C33.6597 4.90034 33.1685 5.0579 32.8074 5.38735C32.4462 5.71679 32.244 6.17514 32.244 6.66215V16.5884H16.8732C16.0498 16.5884 15.3852 17.2473 15.3852 18.0637V21.7019C15.3852 21.9741 15.6164 22.2033 15.8909 22.2033H16.8732C16.8443 22.4181 16.8154 22.633 16.8154 22.8478C16.8154 25.1396 18.6934 27.0017 21.0048 27.0017C22.5939 27.0017 23.9807 26.1136 24.6886 24.8245C25.3965 26.1136 26.7833 27.0017 28.3724 27.0017C30.6838 27.0017 32.5618 25.1396 32.5618 22.8478C32.5618 22.633 32.5474 22.4181 32.504 22.2033H43.8299C43.801 22.4181 43.7721 22.633 43.7721 22.8478C43.7721 25.1396 45.6501 27.0017 47.9615 27.0017C50.2729 27.0017 52.1509 25.1396 52.1509 22.8478C52.1509 22.633 52.1364 22.4181 52.0931 22.2033H52.382C53.2632 22.2033 53.9711 21.5014 53.9711 20.6277V14.9985C54 13.9958 53.2777 13.1221 52.2953 12.9216ZM21.0048 25.999C19.2568 25.999 17.8266 24.581 17.8266 22.8478C17.8266 21.1147 19.2568 19.6966 21.0048 19.6966C22.7528 19.6966 24.183 21.1147 24.183 22.8478C24.183 24.581 22.7528 25.999 21.0048 25.999ZM28.3724 25.999C26.6244 25.999 25.1942 24.581 25.1942 22.8478C25.1942 21.1147 26.6244 19.6966 28.3724 19.6966C30.1204 19.6966 31.5506 21.1147 31.5506 22.8478C31.5506 24.581 30.1204 25.999 28.3724 25.999ZM47.9904 25.999C46.2424 25.999 44.8122 24.581 44.8122 22.8478C44.8122 21.1147 46.2424 19.6966 47.9904 19.6966C49.7384 19.6966 51.1685 21.1147 51.1685 22.8478C51.1685 24.581 49.7384 25.999 47.9904 25.999ZM52.9888 20.6277C52.9888 20.9428 52.7287 21.2006 52.4109 21.2006H51.8331C51.183 19.7253 49.7095 18.694 47.9904 18.694C46.2713 18.694 44.7833 19.7253 44.1477 21.2006H32.2151C31.565 19.7253 30.0915 18.694 28.3724 18.694C26.7833 18.694 25.3965 19.582 24.6886 20.8712C23.9807 19.582 22.5939 18.694 21.0048 18.694C19.2857 18.694 17.7978 19.7253 17.1621 21.2006H16.3965V18.0637C16.3965 17.8059 16.6132 17.5911 16.8732 17.5911H32.764C33.0385 17.5911 33.2697 17.3619 33.2697 17.0897V6.64782C33.2697 6.44729 33.3563 6.26109 33.5008 6.11785C33.6453 5.97461 33.8475 5.91732 34.0498 5.93164L44.9711 6.96294C45.4334 7.00591 45.7801 7.39265 45.7801 7.85101V12.1338C45.7801 12.3773 45.9535 12.5778 46.1846 12.6208L52.0931 13.8812C52.6132 13.9958 52.9888 14.4542 52.9888 14.9842V20.6277ZM43.5265 8.28071H38.9759C38.7014 8.28071 38.4703 8.50989 38.4703 8.78204V12.0335C38.4703 12.3056 38.7014 12.5348 38.9759 12.5348H43.5265C43.801 12.5348 44.0321 12.3056 44.0321 12.0335V8.78204C44.0321 8.50989 43.8154 8.28071 43.5265 8.28071ZM43.0209 11.5322H39.4815V9.28337H43.0209V11.5322Z" fill="white"/>
<path d="M8.72553 20.3395C8.13323 20.6976 7.35313 20.4971 6.99198 19.9098C6.68861 19.4085 6.77528 18.7782 7.17978 18.3772C7.25201 18.3056 7.33869 18.2339 7.42537 18.191C8.01766 17.8329 8.79776 18.0334 9.15891 18.6207C9.46228 19.122 9.37561 19.7523 8.97111 20.1533C8.89888 20.2106 8.82665 20.2822 8.72553 20.3395ZM29.7737 24.2355C30.4093 23.6053 30.5393 22.617 30.0771 21.8435C29.5136 20.9125 28.3002 20.6117 27.3612 21.1703C27.2167 21.2562 27.0867 21.3565 26.9711 21.4711C26.3355 22.1013 26.2055 23.0897 26.6677 23.8631C27.2311 24.7942 28.4446 25.095 29.3836 24.5363C29.5281 24.4504 29.6581 24.3501 29.7737 24.2355ZM22.4061 24.2355C23.0417 23.6053 23.1718 22.617 22.7095 21.8435C22.1461 20.9125 20.9326 20.6117 19.9936 21.1703C19.8491 21.2562 19.7191 21.3565 19.6035 21.4711C18.9679 22.1013 18.8379 23.0897 19.3002 23.8631C19.8636 24.7942 21.0771 25.095 22.0161 24.5363C22.1605 24.4504 22.2905 24.3501 22.4061 24.2355ZM49.3917 24.2355C50.0273 23.6053 50.1573 22.617 49.695 21.8435C49.1316 20.9125 47.9181 20.6117 46.9791 21.1703C46.8347 21.2562 46.7047 21.3565 46.5891 21.4711C45.9535 22.1013 45.8234 23.0897 46.2857 23.8631C46.8491 24.7942 48.0626 25.095 49.0016 24.5363C49.1461 24.4504 49.2761 24.3501 49.3917 24.2355Z" fill="#E6193A"/>
</g>
<defs>
<clipPath id="clip0">
<rect width="54" height="27" fill="white"/>
</clipPath>
</defs>
</svg>
