<svg width="37" height="37" viewBox="0 0 37 37" fill="none" xmlns="http://www.w3.org/2000/svg">
<path d="M18.4642 34.4252C15.21 34.4252 12.0275 34.3256 9.24642 34.1407C9.17474 34.1407 9.08873 34.1123 9.01705 34.0696C6.32197 32.4764 4.05695 30.2003 2.48005 27.4975C0.860132 24.7236 0 21.5513 0 18.3222C0 8.22222 8.28594 0 18.4642 0C28.6424 0 36.9283 8.22222 36.9283 18.3222C36.9283 21.5513 36.0682 24.7236 34.4339 27.4975C32.857 30.2003 30.592 32.4621 27.8969 34.0696C27.8253 34.1123 27.7536 34.1265 27.6676 34.1407C24.9151 34.3256 21.7183 34.4252 18.4642 34.4252ZM9.44711 33.1592C12.1709 33.3441 15.296 33.4437 18.4785 33.4437C21.661 33.4437 24.7861 33.3441 27.5099 33.1592C32.7137 30.0296 35.9535 24.3537 35.9535 18.3364C35.9392 8.77701 28.0976 0.995771 18.4642 0.995771C8.83069 0.995771 1.00349 8.77701 1.00349 18.3222C1.00349 24.3537 4.22898 30.0154 9.44711 33.1592ZM18.6219 37C13.8338 37 9.31809 36.7866 5.92057 36.4025C4.25765 36.2176 2.93878 35.99 2.02131 35.7339C1.14684 35.4921 0.243704 35.1649 0.243704 34.4537C0.243704 34.1834 0.473072 33.9558 0.745448 33.9558C0.989152 33.9558 1.18985 34.1265 1.23286 34.3541C1.37621 34.4679 2.23634 35.0085 6.59434 35.4637C9.87718 35.8051 14.1492 35.99 18.6075 35.99C23.0659 35.99 27.3379 35.8051 30.6207 35.4637C34.9787 35.0085 35.8388 34.4679 35.9822 34.3541C36.0252 34.1265 36.2259 33.9558 36.4696 33.9558C36.742 33.9558 36.9713 34.1834 36.9713 34.4537C36.9713 35.1507 36.0682 35.4921 35.1937 35.7339C34.2619 35.99 32.9574 36.2034 31.2945 36.4025C27.9256 36.7866 23.4243 37 18.6219 37Z" fill="white"/>
<path d="M28.1693 18.5925L24.1123 18.4218C23.7826 18.4075 23.5103 18.1941 23.4099 17.8954L22.5641 15.3206C22.5068 15.1499 22.5641 14.965 22.7075 14.8654C23.969 13.8697 25.2305 12.8739 26.0906 12.2053C26.4204 11.9492 26.4634 11.4514 26.1767 11.1526C25.2305 10.1569 24.098 9.34601 22.8365 8.777C22.4494 8.6063 22.005 8.79123 21.8617 9.18954L20.4281 13.0304C20.3278 13.2864 20.0841 13.4571 19.8117 13.4571H17.1596C16.8872 13.4571 16.6435 13.2864 16.5432 13.0304C15.9554 11.4514 15.3677 9.9008 14.9949 8.90503C14.9089 8.67742 14.6366 8.56362 14.4072 8.64897C12.9163 9.26066 11.6118 10.2138 10.5509 11.3802C10.3789 11.5652 10.4076 11.8639 10.6083 12.0204L14.0631 14.7374C14.3068 14.9223 14.4072 15.2495 14.3068 15.534L13.5184 17.9381C13.418 18.2226 13.16 18.4218 12.8446 18.436C11.024 18.5071 9.2464 18.5925 8.21424 18.6351C8.02788 18.6494 7.88453 18.8058 7.89886 18.9908C7.99921 20.7263 8.52962 22.3622 9.38976 23.7705C9.49011 23.9269 9.70514 23.9838 9.86283 23.87L13.7621 21.2953C14.0201 21.1246 14.3642 21.1246 14.6222 21.3095L16.6579 22.7747C16.9159 22.9596 17.0306 23.2868 16.9446 23.5855C16.4572 25.3352 15.9698 27.0423 15.6974 28.0238C15.6257 28.2657 15.7691 28.5075 16.0128 28.5644C16.8012 28.7493 17.6184 28.8489 18.4498 28.8489C19.2956 28.8489 20.1127 28.7493 20.8869 28.5644C21.1306 28.5075 21.2739 28.2657 21.2022 28.0238L19.9407 23.5571C19.869 23.2726 19.9694 22.9881 20.1987 22.8174L22.3061 21.3095C22.5354 21.1388 22.8652 21.1388 23.1089 21.2953C24.4134 22.163 25.6893 23.0023 26.5781 23.5855C27.0081 23.87 27.5672 23.7136 27.8109 23.2726C28.413 22.1488 28.8144 20.9112 28.9578 19.5882C29.0438 19.0334 28.6854 18.6067 28.1693 18.5925ZM18.4641 19.7447C17.6757 19.7447 17.0449 19.1188 17.0449 18.3364C17.0449 17.554 17.6757 16.9281 18.4641 16.9281C19.2526 16.9281 19.8834 17.554 19.8834 18.3364C19.8834 19.1188 19.2526 19.7447 18.4641 19.7447Z" fill="#E6193A"/>
</svg>
