<?xml version="1.0" standalone="no"?>
<!DOCTYPE svg PUBLIC "-//W3C//DTD SVG 20010904//EN"
 "http://www.w3.org/TR/2001/REC-SVG-20010904/DTD/svg10.dtd">
<svg version="1.0" xmlns="http://www.w3.org/2000/svg"
 width="700.000000pt" height="700.000000pt" viewBox="0 0 700.000000 700.000000"
 preserveAspectRatio="xMidYMid meet">
<metadata>
Created by potrace 1.11, written by Peter Selinger 2001-2013
</metadata>
<g transform="translate(0.000000,700.000000) scale(0.100000,-0.100000)"
fill="#000000" stroke="none">
<path d="M0 3500 l0 -3500 3500 0 3500 0 0 3500 0 3500 -3500 0 -3500 0 0
-3500z m1260 2605 c0 -287 2 -345 14 -345 7 0 50 -18 95 -40 306 -154 435
-539 282 -845 -71 -142 -160 -229 -303 -298 l-87 -42 -3 -535 -3 -535 -135 -5
c-120 -5 -141 -9 -185 -32 -62 -32 -129 -103 -158 -166 -31 -70 -30 -179 4
-252 37 -79 81 -125 157 -162 57 -28 76 -33 142 -32 91 0 147 22 215 85 59 54
96 126 102 200 l6 57 86 6 c47 4 119 9 160 12 l74 6 -7 -81 c-18 -222 -145
-424 -327 -521 -100 -53 -166 -71 -279 -77 -197 -10 -341 47 -486 191 -90 90
-141 179 -168 296 -20 83 -20 219 -1 295 23 89 87 213 145 277 66 74 182 151
270 179 l70 23 0 381 0 381 -57 18 c-161 49 -302 172 -377 328 -52 109 -66
169 -66 281 0 176 59 316 185 443 89 90 143 125 243 159 l67 23 3 336 2 336
160 0 160 0 0 -345z m1466 -1806 c47 -9 136 -53 439 -218 l380 -208 410 83
c226 46 471 95 546 110 l136 27 716 -397 c393 -218 720 -402 725 -409 6 -7
116 -306 246 -665 l236 -653 0 -167 0 -167 -45 -83 c-126 -236 -354 -446 -571
-528 -111 -41 -191 -56 -309 -56 -106 1 -115 3 -235 47 -69 26 -147 59 -174
75 l-50 28 -48 -73 c-27 -41 -74 -96 -105 -124 -70 -62 -189 -126 -274 -146
-76 -17 -217 -19 -291 -4 -123 26 -273 118 -354 217 -54 66 -117 193 -133 270
-15 74 -13 215 4 290 14 58 62 169 86 198 8 9 -21 31 -108 82 -165 97 -734
427 -759 440 -18 10 -25 5 -62 -52 -76 -117 -197 -207 -342 -257 -53 -18 -87
-23 -185 -23 -109 0 -128 2 -205 30 -336 119 -513 472 -403 804 13 41 38 96
54 123 16 26 29 50 29 54 0 3 -24 33 -53 67 -104 119 -168 229 -209 356 -19
63 -23 96 -22 200 0 110 3 135 28 205 78 228 244 406 455 486 120 45 316 62
447 38z"/>
<path d="M1012 5470 c-251 -53 -344 -368 -161 -548 71 -69 118 -87 229 -87 87
0 100 3 149 30 115 64 176 174 169 305 -6 94 -37 159 -108 223 -74 67 -183 97
-278 77z"/>
</g>
</svg>
